<?xml version="1.0" encoding="utf-8"?>
<!-- Generator: Adobe Illustrator 25.2.0, SVG Export Plug-In . SVG Version: 6.00 Build 0)  -->
<svg version="1.1" id="Layer_1" xmlns="http://www.w3.org/2000/svg" xmlns:xlink="http://www.w3.org/1999/xlink" x="0px" y="0px"
	 viewBox="0 0 2160 2160" enable-background="new 0 0 2160 2160" xml:space="preserve">
<g transform="matrix(1, 0, 0, 1, 0, 0)">
	<g id="Rectangle_2-2" transform="translate(75 448.85) rotate(-30)">
		
			<radialGradient id="SVGID_1_" cx="-922.5731201" cy="1443.708252" r="1.5448552" gradientTransform="matrix(159.3486328 135.5000763 92.0000763 -234.6928406 13964.2988281 464956.125)" gradientUnits="userSpaceOnUse">
			<stop  offset="0" style="stop-color:#F1F5F9"/>
			<stop  offset="1" style="stop-color:#E2E8F0"/>
		</radialGradient>
		<path fill="url(#SVGID_1_)" d="M-466.1896667,700.7341919l481.9949951,0.0001221
			c23.8896332,0,43.2559586,19.366333,43.2559547,43.2559814l-0.000145,750.7998657
			c-0.0000076,23.8896484-19.3663368,43.2559814-43.25597,43.2559814l-481.9949951-0.0001221
			c-23.8895874,0-43.2559509-19.366333-43.2559509-43.2559814l0.0001526-750.7998657
			C-509.4456482,720.1005859-490.0792847,700.7341919-466.1896667,700.7341919z"/>
		<path fill="none" stroke="#FFFFFF" d="M-466.1896667,702.2790527l481.9949951,0.0001221
			c23.0363998,0,41.7111015,18.6746826,41.7110977,41.7111206l-0.000145,750.7998657
			c-0.0000038,23.036377-18.6747169,41.7110596-41.711113,41.7110596h-481.9949951
			c-23.0364075,0-41.7110901-18.6748047-41.7110901-41.7111816l0.0001526-750.7998657
			C-507.9007874,720.9537354-489.2260742,702.2790527-466.1896667,702.2790527z"/>
	</g>
</g>
<g transform="matrix(1, 0, 0, 1, 0, 0)">
	<g id="Rectangle_4-2" transform="translate(489.49 369.85) rotate(-30)">
		
			<radialGradient id="SVGID_2_" cx="-1316.5777588" cy="1306.2147217" r="1.5448552" gradientTransform="matrix(159.3486328 135.5000763 92.0000763 -234.6928406 90230.4765625 486365.125)" gradientUnits="userSpaceOnUse">
			<stop  offset="0" style="stop-color:#F1F5F9"/>
			<stop  offset="1" style="stop-color:#E2E8F0"/>
		</radialGradient>
		<path fill="url(#SVGID_2_)" d="M366.4742126,990.8468628l481.9950256,0.0001221
			c23.8895874,0,43.2559204,19.366333,43.2559204,43.2559204l-0.0001221,750.7999268
			c0,23.8896484-19.366333,43.2559814-43.2559814,43.2559814l-481.9949951-0.0001221
			c-23.8896179,0-43.2559509-19.366333-43.2559509-43.2559814l0.0001221-750.7999268
			C323.2182617,1010.2131958,342.5845947,990.8468628,366.4742126,990.8468628z"/>
		<path fill="none" stroke="#FFFFFF" d="M366.4742126,992.3917236l481.9950256,0.0001221
			c23.036377,0,41.7110596,18.6746826,41.7110596,41.7110596l-0.0001221,750.7999268
			c0,23.036377-18.6747437,41.7110596-41.7111206,41.7110596H366.4740601
			c-23.0364075,0-41.7111206-18.6748047-41.7110901-41.7111816l0.0001221-750.7999268
			C324.763092,1011.0664062,343.4378052,992.3917236,366.4742126,992.3917236z"/>
	</g>
</g>
<g transform="matrix(1, 0, 0, 1, 0, 0)">
	<g id="Rectangle_3-2" transform="translate(200.58 157) rotate(-30)">
		
			<radialGradient id="SVGID_3_" cx="-1175.4812012" cy="1636.3825684" r="1.5448552" gradientTransform="matrix(159.3486328 135.5000763 92.0000763 -234.6928406 37071.0117188 544047.5)" gradientUnits="userSpaceOnUse">
			<stop  offset="0" style="stop-color:#F1F5F9"/>
			<stop  offset="1" style="stop-color:#E2E8F0"/>
		</radialGradient>
		<path fill="url(#SVGID_3_)" d="M66.0190506,303.7738037l481.9949951,0.0000916
			c23.8896484,0,43.2559814,19.3663635,43.2559814,43.2559509l-0.0001831,750.7998657
			c0,23.8896484-19.366333,43.2559814-43.2559814,43.2559814l-481.9949646-0.0001221
			c-23.8896065,0-43.2559547-19.366333-43.2559509-43.2559814l0.0001469-750.7998047
			C22.7630825,323.1401367,42.1294403,303.7737732,66.0190506,303.7738037z"/>
		<path fill="none" stroke="#FFFFFF" d="M66.0190506,305.318634l481.9949951,0.0000916
			c23.036377,0.0000305,41.7111206,18.6747131,41.7111206,41.7111206l-0.0001831,750.7998657
			c0,23.036377-18.6746826,41.7111816-41.7111206,41.7111816l-481.9949646-0.0001221
			c-23.0364037,0-41.7110977-18.6746826-41.7110939-41.7111816l0.000145-750.7998047
			C24.3079395,323.9933472,42.9826393,305.318634,66.0190506,305.318634z"/>
	</g>
</g>
</svg>
