<?xml version="1.0" encoding="utf-8"?>
<!-- Generator: Adobe Illustrator 25.2.0, SVG Export Plug-In . SVG Version: 6.00 Build 0)  -->
<svg version="1.1" id="Layer_1" xmlns="http://www.w3.org/2000/svg" xmlns:xlink="http://www.w3.org/1999/xlink" x="0px" y="0px"
	 viewBox="0 0 2160 2160" style="enable-background:new 0 0 2160 2160;" xml:space="preserve">
<style type="text/css">
	.st0{enable-background:new    ;}
	.st1{fill:#FFA4AA;}
</style>
<g id="branding_wordmark" transform="translate(65)">
	<g class="st0">
		<path class="st1" d="M1078.9345703,866.4785156c-1.5908203,7.4287109-3.4501953,14.7890625-5.5693359,22.0805664
			c-2.1259766,7.2983398-4.5136719,14.5219727-7.1621094,21.6831055
			c-2.9208984,7.4287109-5.7060547,14.7890625-8.3544922,22.0810547
			c-2.6542969,7.2978516-5.8369141,14.3911133-9.5488281,21.2851562
			c-3.4501953,6.6328125-7.1611328,13.0668945-11.1396484,19.2958984
			c-3.9785156,6.2348633-7.4287109,12.7993164-10.34375,19.6933594c-2.6542969,6.1049805-5.3710938,12.1347656-8.15625,18.1025391
			s-6.3037109,11.6000977-10.5429688,16.9086914c-2.1259766,2.6484375-4.5131836,4.2397461-7.1616211,4.7744141
			c-2.6542969,0.5283203-5.2402344,0.3291016-7.7578125-0.597168c-2.5239258-0.9321289-4.9111328-2.4550781-7.1616211-4.5751953
			c-2.2563477-2.1259766-3.7792969-4.3764648-4.5751953-6.7631836c-4.5131836-12.4643555-7.8266602-24.996582-9.9462891-37.597168
			c-2.1259766-12.5947266-4.9111328-25.2636719-8.3549805-37.9951172c-0.7958984-3.7114258-1.659668-7.2919922-2.5859375-10.7421875
			c-0.9326172-3.4438477-1.9272461-6.894043-2.9838867-10.34375c-2.1259766,6.1044922-4.4448242,12.0722656-6.9624023,17.9033203
			c-2.5239258,5.8369141-5.2407227,11.8046875-8.15625,17.9033203c-3.1826172,6.1044922-6.3657227,12.3334961-9.5483398,18.6992188
			c-3.1826172,6.3652344-6.5024414,12.6005859-9.9462891,18.6987305
			c-2.921875,6.1044922-6.3657227,11.7368164-10.3442383,16.9086914c-3.9785156,5.1723633-8.7529297,9.6108398-14.3227539,13.328125
			c-4.5131836,2.9155273-9.0883789,3.1831055-13.7260742,0.7958984c-4.6435547-2.387207-7.7578125-5.8374023-9.3491211-10.3442383
			c-3.9785156-11.9355469-7.5595703-24.0703125-10.7421875-36.4033203
			c-3.1831055-12.3334961-6.3657227-24.6669922-9.5483398-37.0004883
			c-3.1831055-12.3334961-6.5024414-24.5302734-9.9462891-36.6025391
			c-3.4501953-12.065918-7.4287109-24.0703125-11.9360352-36.0058594
			c-1.5913086-3.9785156-1.1313477-7.8886719,1.3925781-11.7363281c2.5175781-3.8417969,5.6323242-6.4277344,9.3496094-7.7583008
			c4.5068359-1.3242188,8.5537109-0.7958984,12.1347656,1.5913086c3.5805664,2.387207,6.0297852,5.5698242,7.3598633,9.5488281
			c7.4228516,19.0966797,13.5273438,38.3305664,18.3012695,57.6884766
			c4.7744141,19.3642578,9.8095703,38.8588867,15.1186523,58.484375l2.387207-4.7744141
			c2.9155273-5.8310547,5.7685547-11.5375977,8.5537109-17.1074219s5.6323242-11.2705078,8.5537109-17.1079102
			c3.1831055-6.0981445,6.0302734-12.3955078,8.5537109-18.8979492c2.5180664-6.4960938,4.8364258-13.0605469,6.9628906-19.6938477
			c2.1196289-6.3652344,4.1088867-12.730957,5.9677734-19.0966797c1.8525391-6.3657227,3.0458984-12.9926758,3.5805664-19.8925781
			c0.2612305-4.2397461,1.7900391-7.6899414,4.5751953-10.3442383c2.7851562-2.6484375,5.9677734-4.2397461,9.5483398-4.7744141
			c3.5810547-0.5283203,6.9624023,0.0683594,10.1455078,1.7905273c3.1826172,1.7280273,5.4331055,4.8427734,6.7631836,9.3496094
			c3.7114258,13.5268555,7.5595703,26.9233398,11.5380859,40.1831055c3.9785156,13.265625,7.559082,26.65625,10.7416992,40.1831055
			c1.3242188,5.5698242,2.5180664,11.0776367,3.5810547,16.5107422c1.0566406,5.4394531,2.25,10.8105469,3.5805664,16.1132812
			c2.9155273-6.3657227,6.2973633-12.5327148,10.1450195-18.5004883c3.8417969-5.9677734,7.3603516-12.1342773,10.5429688-18.5
			c5.8310547-11.9355469,10.9414062-24.4677734,15.3173828-37.597168
			c4.3769531-13.1289062,7.8886719-26.1899414,10.5429688-39.1884766c0.7958984-4.5068359,3.2451172-7.8203125,7.3603516-9.9462891
			c4.109375-2.1196289,8.15625-2.5175781,12.1347656-1.1933594c4.5068359,1.3300781,7.6894531,3.8476562,9.5488281,7.559082
			C1079.1962891,858.2602539,1079.7304688,862.2387695,1078.9345703,866.4785156z"/>
		<path class="st1" d="M1131.8496094,1008.909668c-9.0205078-3.9785156-16.1132812-9.4799805-21.2851562-16.5107422
			c-5.171875-7.0244141-8.7529297-14.7827148-10.7421875-23.2744141
			c-1.9892578-8.4853516-2.5859375-17.3066406-1.7900391-26.4570312c0.7958984-9.1508789,2.6484375-17.9658203,5.5693359-26.4575195
			c2.3876953-6.6264648,5.1044922-13.5268555,8.15625-20.6879883c3.0458984-7.1616211,6.6953125-13.7880859,10.9414062-19.8930664
			c4.2392578-6.0981445,9.28125-11.3383789,15.1181641-15.7148438c5.8310547-4.3764648,12.7314453-7.2236328,20.6884766-8.5541992
			c8.2177734-1.3237305,16.5107422-1.7900391,24.8652344-1.3920898c8.3554688,0.3974609,16.6416016,1.2617188,24.8662109,2.5859375
			c3.7109375,0.534668,7.2919922,1.3925781,10.7421875,2.5859375c3.4433594,1.1933594,6.8935547,2.4555664,10.34375,3.7797852
			c0.2617188-3.9785156,2.0517578-7.2919922,5.3710938-9.9462891c3.3134766-2.6484375,6.8261719-3.9785156,10.5429688-3.9785156
			c4.5068359,0,8.15625,1.5292969,10.9414062,4.5751953c2.7851562,3.0522461,4.4384766,6.7011719,4.9726562,10.940918
			c1.3242188,12.2026367,1.9208984,24.4057617,1.7910156,36.6025391
			c-0.1367188,12.2026367-0.5351562,24.4057617-1.1943359,36.6025391
			c-0.6650391,12.2026367-1.1933594,24.4057617-1.5908203,36.6020508c-0.3974609,12.203125-0.3359375,24.40625,0.1992188,36.6025391
			c0.2607422,5.0415039-1.2626953,8.8212891-4.5761719,11.3388672c-3.3193359,2.5175781-6.9619141,3.7797852-10.9404297,3.7797852
			s-7.6279297-1.262207-10.9414062-3.7797852c-3.3193359-2.5175781-5.109375-6.2973633-5.3710938-11.3388672
			c-15.1181641,6.3657227-31.1689453,10.0146484-48.1396484,10.940918
			C1163.4101562,1018.7939453,1147.2294922,1015.8100586,1131.8496094,1008.909668z M1134.6347656,922.5756836
			c-1.5917969,4.7744141-3.0527344,10.2138672-4.3769531,16.3120117
			c-1.3300781,6.1044922-1.7275391,11.9355469-1.1933594,17.5053711c0.5283203,5.5703125,2.2509766,10.6801758,5.171875,15.3173828
			c2.9160156,4.644043,7.6904297,7.8950195,14.3232422,9.7475586c13.5263672,4.2456055,27.1162109,5.4394531,40.7792969,3.5805664
			c13.6582031-1.8525391,26.4580078-6.6264648,38.3935547-14.3227539
			c1.0566406-12.9921875,1.9208984-25.5927734,2.5859375-37.7958984
			c0.6591797-12.1967773,0.8574219-24.5302734,0.5966797-37.0004883c-4.5136719-2.9155273-9.0888672-5.5014648-13.7255859-7.7578125
			c-4.6445312-2.2504883-9.7480469-3.7797852-15.3173828-4.5756836c-5.5703125-0.7954102-11.4755859-1.3920898-17.7050781-1.7900391
			c-6.2353516-0.3979492-12.2714844-0.3295898-18.1025391,0.1987305c-0.5341797,0-1.9267578,0.3359375-4.1767578,0.9946289
			c-2.2568359,0.6655273-3.5185547,1.1313477-3.7802734,1.3925781c-2.6542969,1.3305664-5.0410156,3.4501953-7.1611328,6.3657227
			c-3.4501953,4.7744141-6.5019531,9.8842773-9.1503906,15.3173828
			C1139.1416016,911.5043945,1136.7539062,917.0058594,1134.6347656,922.5756836z"/>
		<path class="st1" d="M1325.6035156,707.3374023c4.7744141,0,8.4853516,1.5913086,11.1396484,4.7744141
			c2.6484375,3.1826172,4.2402344,6.8999023,4.7744141,11.1396484c2.6484375,25.2016602,4.109375,50.3969727,4.3759766,75.5917969
			c0.2617188,25.2016602-0.0683594,50.3969727-0.9941406,75.5922852
			c-0.9326172,25.2016602-2.3251953,50.3969727-4.1777344,75.5922852
			c-1.8583984,25.2011719-3.7167969,50.2661133-5.5693359,75.1938477
			c-0.5351562,4.5068359-2.1884766,8.2866211-4.9736328,11.3388672c-2.7851562,3.0458984-6.4335938,4.5751953-10.9404297,4.5751953
			c-3.9785156,0-7.6962891-1.5292969-11.140625-4.5751953c-3.4501953-3.0522461-5.0410156-6.8320312-4.7744141-11.3388672
			c1.8525391-24.9277344,3.7802734-49.9926758,5.7695312-75.1938477c1.9892578-25.1953125,3.4433594-50.390625,4.3759766-75.5922852
			c0.9267578-25.1953125,1.2558594-50.390625,0.9951172-75.5922852
			c-0.2675781-25.1948242-1.7285156-50.3901367-4.3769531-75.5917969
			c-0.5341797-4.2397461,0.9267578-7.9570312,4.3769531-11.1396484
			C1317.9072266,708.9287109,1321.625,707.3374023,1325.6035156,707.3374023z"/>
		<path class="st1" d="M1394.4326172,933.7158203c-1.0625-3.1831055-1.1933594-6.496582-0.3974609-9.9462891
			c-1.859375-32.0893555-3.8486328-63.9863281-5.9677734-95.684082
			c-2.1259766-31.6914062-1.9892578-63.5878906,0.3974609-95.6835938c0.5283203-4.5068359,2.1884766-8.2861328,4.9736328-11.3383789
			c2.7841797-3.0463867,6.4277344-4.5756836,10.9404297-4.5756836c4.2392578,0,8.0878906,1.5292969,11.5380859,4.5756836
			c3.4433594,3.0522461,4.9042969,6.831543,4.3759766,11.3383789c-2.1259766,28.9130859-2.3867188,57.4897461-0.7958984,85.7373047
			c1.5917969,28.2475586,3.3134766,56.8310547,5.1728516,85.7373047
			c14.8505859-9.2807617,29.7705078-18.3012695,44.7578125-27.0537109
			c14.9814453-8.7529297,29.640625-18.0341797,43.9628906-27.8496094c4.2392578-2.9155273,8.2871094-3.6430664,12.1347656-2.1884766
			c3.8417969,1.4609375,6.7636719,3.9165039,8.7529297,7.3603516c1.9892578,3.4501953,2.7158203,7.2983398,2.1875,11.5375977
			c-0.5341797,4.2460938-2.9208984,7.8266602-7.1611328,10.7421875c-14.3222656,9.815918-28.84375,19.034668-43.5644531,27.6508789
			c-14.7207031,8.6220703-29.5097656,17.4433594-44.3613281,26.4570312
			c17.7666016,11.9355469,35.4091797,24.0078125,52.9150391,36.2045898
			c17.5048828,12.203125,34.6132812,25.0649414,51.3232422,38.5917969c3.4433594,2.921875,5.0351562,6.7011719,4.7734375,11.3388672
			c-0.2666016,4.6376953-1.8583984,8.4169922-4.7734375,11.3388672c-3.4501953,3.1826172-7.2304688,4.637207-11.3388672,4.3764648
			c-4.1152344-0.2675781-7.8955078-1.7285156-11.3388672-4.3764648
			c-15.3857422-12.4638672-31.0332031-24.269043-46.9472656-35.4091797
			c-15.9140625-11.1396484-32.0947266-22.2797852-48.5380859-33.4194336
			c0.2617188,10.0830078,0.3300781,20.2905273,0.1992188,30.6347656
			c-0.1367188,10.3442383-0.4658203,20.5576172-0.9941406,30.6347656
			c-0.2675781,5.3022461-2.0576172,9.2124023-5.3710938,11.7363281c-3.3203125,2.5175781-6.9628906,3.7797852-10.9414062,3.7797852
			s-7.5585938-1.262207-10.7421875-3.7797852c-3.1826172-2.5239258-4.6435547-6.434082-4.3759766-11.7363281
			c0.5283203-14.3227539,0.7275391-28.7080078,0.5966797-43.1669922
			C1395.6884766,962.8271484,1395.2285156,948.3056641,1394.4326172,933.7158203z"/>
		<path class="st1" d="M1564.7128906,1015.6733398c2.1201172-12.7314453,4.5751953-25.2636719,7.3603516-37.597168
			s4.8359375-24.8657227,6.1669922-37.597168c1.0566406-12.4638672,1.2548828-24.7290039,0.5966797-36.8012695
			c-0.6660156-12.065918,0.0615234-24.3310547,2.1875-36.8012695c0.5283203-4.2397461,2.984375-7.4223633,7.3603516-9.5488281
			c4.3769531-2.1196289,8.4169922-2.6479492,12.1347656-1.5913086c4.5068359,1.3305664,7.6210938,3.8481445,9.3496094,7.5595703
			c1.7216797,3.7172852,2.3183594,7.6958008,1.7900391,11.9355469c-1.0625,6.1044922-1.5292969,12.3334961-1.3925781,18.6987305
			c0.1308594,6.3657227,0.3300781,12.7314453,0.5966797,19.097168c0,12.2026367-0.7949219,24.4057617-2.3867188,36.6025391
			c-1.5917969,12.730957-3.6494141,25.2011719-6.1669922,37.3979492
			c-2.5234375,12.203125-4.8427734,24.5366211-6.9619141,37.0004883c-0.7958984,4.2397461-3.3193359,7.4223633-7.5595703,9.5483398
			c-4.2460938,2.1196289-8.2246094,2.6484375-11.9355469,1.5913086c-4.5126953-1.3300781-7.6962891-3.8476562-9.5488281-7.559082
			C1564.4453125,1023.8916016,1563.9169922,1019.9130859,1564.7128906,1015.6733398z M1583.8095703,832.6611328
			c-1.8583984-0.5283203-3.7177734-1.3925781-5.5693359-2.5864258c-1.859375-1.1933594-3.1835938-2.7163086-3.9794922-4.5751953
			c-0.7949219-2.1196289-1.4599609-3.9785156-1.9892578-5.5698242c-0.5341797-1.5913086-0.7949219-3.4438477-0.7949219-5.5698242
			c0-2.387207,0.3974609-4.7744141,1.1933594-7.1616211c1.0566406-4.7739258,3.1826172-8.2177734,6.3652344-10.3442383
			c1.0566406-1.5913086,2.5175781-2.784668,4.3769531-3.5805664c2.9150391-1.8525391,6.2285156-2.847168,9.9462891-2.9838867
			c3.7109375-0.1303711,7.0244141,0.8642578,9.9462891,2.9838867c1.3242188,1.0629883,2.6484375,2.1884766,3.9785156,3.3818359
			c1.3242188,1.1933594,2.3867188,2.7226562,3.1826172,4.5751953c0.5283203,1.3305664,1.125,2.7851562,1.7900391,4.3764648
			c0.6591797,1.5913086,0.8583984,3.1831055,0.5966797,4.7744141c-0.2666016,1.8583984-0.5341797,3.5805664-0.7949219,5.171875
			c-0.2675781,1.5913086-0.9326172,3.0522461-1.9892578,4.3764648c-1.3310547,1.8588867-2.3876953,3.1826172-3.1835938,3.9785156
			c-0.7949219,0.7958984-2.1259766,1.8588867-3.9785156,3.1826172c-1.0625,1.0634766-2.6542969,1.8588867-4.7734375,2.387207
			C1592.5625,832.6611328,1587.7880859,833.7241211,1583.8095703,832.6611328z"/>
		<path class="st1" d="M1658.2089844,981.4580078c0-11.4008789,0.7958984-22.9389648,2.3867188-34.6132812
			c1.8525391-14.0551758,3.7119141-28.0483398,5.5703125-41.9736328
			c1.8525391-13.9248047,2.6484375-28.0483398,2.3867188-42.3710938c0-5.0351562,1.5917969-8.8833008,4.7744141-11.5375977
			c3.1826172-2.6484375,6.7636719-3.9785156,10.7421875-3.9785156s7.6894531,1.3300781,11.1396484,3.9785156
			c3.4443359,2.6542969,5.171875,6.5024414,5.171875,11.5375977c10.3447266-0.7958984,20.1542969-1.1938477,29.4414062-1.1938477
			c10.6054688,0.2675781,19.625,3.3198242,27.0537109,9.1508789c7.4228516,5.8374023,12.9931641,13.6635742,16.7099609,23.4731445
			c3.1826172,9.0200195,5.0351562,18.3012695,5.5703125,27.8500977c0.5283203,9.5483398,0.9257812,19.0966797,1.1933594,28.6450195
			c0.2607422,13.5273438,0.6591797,26.9921875,1.1933594,40.3823242
			c0.5283203,13.3964844,0.7958984,26.8549805,0.7958984,40.3818359c0,5.3027344-1.6601562,9.2128906-4.9726562,11.7368164
			c-3.3203125,2.5175781-6.9003906,3.7797852-10.7421875,3.7797852c-3.8486328,0-7.4287109-1.262207-10.7421875-3.7797852
			c-3.3193359-2.5239258-4.9736328-6.434082-4.9736328-11.7368164c0-12.730957-0.1982422-25.1953125-0.5966797-37.3979492
			c-0.3974609-12.1967773-0.8642578-24.6669922-1.3925781-37.3984375
			c-0.5341797-6.894043-0.7333984-13.9868164-0.5966797-21.2851562c0.1308594-7.2915039-0.4658203-13.9868164-1.7900391-20.0913086
			c-0.7958984-3.7114258-1.5917969-6.9624023-2.3867188-9.7475586c-0.7958984-2.784668-2.2568359-5.5014648-4.3769531-8.1557617
			c-0.5341797-1.0571289-1.6591797-1.9892578-3.3818359-2.7851562c-1.7275391-0.7954102-3.2509766-1.1933594-4.5751953-1.1933594
			c-3.9785156,0-7.6962891,0.2670898-11.1396484,0.7954102c-3.4501953,0.534668-7.03125,1.3305664-10.7421875,2.387207
			c-1.5917969,0.534668-3.1826172,1.0629883-4.7744141,1.5913086c-1.5908203,0.534668-3.0517578,1.1938477-4.3759766,1.9892578
			c-2.6542969,9.5488281-4.5751953,18.637207-5.7695312,27.2529297c-1.1933594,8.6225586-2.3242188,17.3066406-3.3808594,26.0595703
			c-0.7958984,6.3657227-1.2626953,12.7998047-1.3925781,19.2958984
			c-0.1367188,6.5024414-0.3984375,12.9301758-0.7958984,19.2958984c-0.3984375,6.3657227-1.1933594,12.730957-2.3876953,19.0966797
			c-1.1933594,6.3657227-3.2509766,12.4643555-6.1660156,18.3012695c-2.3876953,4.5068359-5.5703125,7.0932617-9.5488281,7.7583008
			c-3.9785156,0.6586914-7.6279297,0-10.9404297-1.9892578c-3.3203125-1.9892578-5.8378906-4.9731445-7.5595703-8.9516602
			c-1.7285156-3.9785156-1.5292969-8.2182617,0.5966797-12.7314453c2.3867188-4.7739258,3.7109375-9.9462891,3.9785156-15.5161133
			C1657.6738281,992.2001953,1657.9414062,986.7666016,1658.2089844,981.4580078z"/>
		<path class="st1" d="M1824.1132812,1121.5019531c5.8310547,5.5703125,12.5947266,9.4804688,20.2910156,11.7363281
			c7.6894531,2.25,15.3789062,2.984375,23.0751953,2.1894531c7.6894531-0.796875,14.9814453-3.0527344,21.8818359-6.7636719
			c6.8945312-3.71875,12.5947266-8.890625,17.1074219-15.5175781c9.5488281-13.5253906,15.7158203-28.4453125,18.5009766-44.7578125
			c2.7841797-16.3120117,3.9101562-32.6923828,3.3808594-49.1347656
			c-12.7304688,2.1201172-25.7978516,2.5859375-39.1884766,1.3925781
			c-13.3964844-1.1933594-26.0585938-4.0405273-37.9941406-8.5537109c-6.1054688-2.387207-11.8740234-5.234375-17.3066406-8.5541992
			c-5.4394531-3.3129883-9.7480469-8.019043-12.9306641-14.1235352c-5.5703125-10.3442383-7.9570312-21.7451172-7.1611328-34.215332
			c0.5283203-11.9355469,2.5859375-23.5356445,6.1669922-34.8120117
			c3.5800781-11.2705078,7.6210938-22.4790039,12.1337891-33.6186523c2.3876953-5.3027344,4.9736328-10.940918,7.7587891-16.9086914
			c2.7841797-5.9677734,6.4277344-11.3388672,10.9404297-16.1132812c4.5068359-5.0351562,9.6787109-8.8833008,15.5166016-11.5375977
			c5.8310547-2.6484375,12.0664062-4.2397461,18.6992188-4.7744141c-1.0634766-3.7109375-1.0634766-7.2231445,0-10.5429688
			c1.0566406-3.3134766,3.3134766-6.0297852,6.7636719-8.1557617c3.4433594-2.1201172,7.4902344-2.6484375,12.1337891-1.5917969
			c4.6376953,1.0629883,7.8886719,3.4501953,9.7480469,7.1616211c1.0566406,2.387207,2.0507812,4.7744141,2.9833984,7.1611328
			c0.9267578,2.387207,1.7900391,4.7744141,2.5859375,7.1616211c5.3027344,14.3227539,10.1455078,28.7822266,14.5214844,43.3657227
			c4.3769531,14.590332,8.5537109,29.3105469,12.5322266,44.1616211c4.7744141,17.5058594,8.3554688,35.2783203,10.7421875,53.3125
			c2.3876953,18.0400391,3.3134766,36.3413086,2.7851562,54.9038086
			c-0.2675781,10.3442383-1.1308594,20.9492188-2.5859375,31.828125
			c-1.4609375,10.8725586-3.9160156,21.3481445-7.3603516,31.4301758
			c-3.4501953,10.0761719-7.9570312,19.6933594-13.5273438,28.84375
			c-5.5693359,9.1523438-12.7304688,17.0410156-21.4833984,23.6738281
			c-8.2246094,6.3652344-17.3066406,10.9394531-27.2529297,13.7246094s-20.0292969,3.9101562-30.2373047,3.3828125
			c-10.2128906-0.5351562-20.1601562-2.7851562-29.8388672-6.7636719
			c-9.6845703-3.9785156-18.2392578-9.5488281-25.6611328-16.7109375
			c-3.7109375-3.4492188-5.3027344-7.2285156-4.7744141-11.3378906c0.5341797-4.1152344,2.1884766-7.5585938,4.9726562-10.34375
			c2.7851562-2.7851562,6.2294922-4.4453125,10.3447266-4.9746094
			C1816.4863281,1116.5917969,1820.3964844,1118.0527344,1824.1132812,1121.5019531z M1868.2753906,984.2431641
			c9.28125,2.3867188,18.8974609,4.046875,28.84375,4.9731445c9.9462891,0.9321289,19.5576172,0.3354492,28.8447266-1.7905273
			c-1.5917969-13.5268555-3.9160156-26.5195312-6.9619141-38.9897461
			c-3.0527344-12.4638672-6.4345703-25.0644531-10.1455078-37.7958984
			c-2.1259766-7.4223633-4.3144531-14.7207031-6.5644531-21.8818359
			c-2.2568359-7.1616211-4.5751953-14.3227539-6.9628906-21.4838867c-0.7958984,0.5341797-1.7285156,0.8637695-2.7851562,0.9946289
			c-1.0625,0.1367188-2.2558594,0.3354492-3.5800781,0.5966797c-7.9570312,0-14.0615234,3.5805664-18.3017578,10.7416992
			c-2.921875,4.5131836-5.3085938,9.2875977-7.1611328,14.3227539c-0.5341797,1.3305664-1.0634766,2.5864258-1.5917969,3.7797852
			c-0.5341797,1.1933594-1.0625,2.4555664-1.5908203,3.7797852c-3.9785156,9.5483398-7.3603516,18.7670898-10.1455078,27.6503906
			c-2.7851562,8.8896484-4.4443359,17.5742188-4.9726562,26.0595703v7.1611328
			c0.2607422,1.8588867,0.5283203,3.3198242,0.7949219,4.3764648c0.5283203,2.387207,0.8583984,3.8481445,0.9951172,4.3764648
			c0.1308594,0.534668,0.8574219,1.8588867,2.1884766,3.9785156c1.5908203,1.3305664,3.0458984,2.387207,4.3759766,3.1831055
			c1.3242188,0.7954102,2.1201172,1.3300781,2.3867188,1.5913086c2.1201172,0.7954102,4.1777344,1.5913086,6.1669922,2.387207
			C1864.0976562,983.0493164,1866.1494141,983.7143555,1868.2753906,984.2431641z"/>
	</g>
	<g class="st0">
		<path class="st1" d="M866.5327148,1062.3618164c-0.2675781-5.0351562,1.1933594-8.8833008,4.3764648-11.5375977
			c3.1826172-2.6484375,6.7631836-3.9785156,10.7416992-3.9785156s7.6899414,1.3300781,11.1401367,3.9785156
			c3.4438477,2.6542969,5.3027344,6.5024414,5.5698242,11.5375977c1.0566406,21.4838867,2.7851562,42.8374023,5.1723633,64.0541992
			c2.3867188,21.2236328,3.3129883,42.5703125,2.784668,64.0546875c14.0556641-4.2402344,28.4467773-7.2236328,43.1669922-8.9521484
			c14.7207031-1.7216797,29.1054688-0.7265625,43.1669922,2.984375c8.4858398,2.1259766,16.6416016,5.5693359,24.4682617,10.34375
			c7.8203125,4.7744141,13.7255859,11.4072266,17.7041016,19.8925781
			c3.4443359,7.6962891,5.7695312,15.5166016,6.9628906,23.4736328s1.5224609,16.1816406,0.9941406,24.6669922
			c-0.7958984,9.8154297-2.7226562,18.9658203-5.7685547,27.4521484
			c-3.0527344,8.4912109-7.6279297,16.5791016-13.7255859,24.2685547
			c-5.5703125,7.1611328-11.8740234,13.9931641-18.8984375,20.4892578
			c-7.0307617,6.5029297-14.7890625,11.7373047-23.2744141,15.7158203
			c-5.0415039,2.1259766-10.0146484,3.2509766-14.9194336,3.3808594c-4.9111328,0.1376953-9.7475586-0.5283203-14.5214844-1.9892578
			c-4.7744141-1.4541016-9.4179688-3.3125-13.9248047-5.5693359c-4.5131836-2.2509766-8.8896484-4.7060547-13.1293945-7.3603516
			c-4.2456055-2.6484375-8.3549805-5.234375-12.3334961-7.7578125c-3.9785156-2.5175781-7.8261719-5.5019531-11.5375977-8.9521484
			l-2.387207,7.9570312c0,5.3085938-1.659668,9.21875-4.9731445,11.7363281
			c-3.3193359,2.5244141-6.9624023,3.7802734-10.940918,3.7802734s-7.6274414-1.2558594-10.940918-3.7802734
			c-3.3198242-2.5175781-4.9731445-6.4277344-4.9731445-11.7363281
			c-0.2675781-17.5058594,0.3979492-34.7431641,1.9892578-51.7207031
			c1.5913086-16.9707031,3.0458984-34.0791016,4.3764648-51.3232422c-3.1831055-4.7744141-4.5131836-9.1503906-3.9785156-13.1289062
			c0.5283203-3.9785156,2.25-7.1611328,5.171875-9.5488281c0.2612305-2.3867188,0.3979492-4.7744141,0.3979492-7.1611328
			s0-4.7744141,0-7.1611328c0.5283203-21.484375-0.3979492-42.8310547-2.7851562-64.0546875
			C869.3178711,1105.1992188,867.5893555,1083.8457031,866.5327148,1062.3618164z M904.3286133,1225.4814453
			c-0.534668,9.2871094-1.1933594,18.4384766-1.9892578,27.4521484c-0.7954102,9.0195312-1.5913086,18.1708984-2.387207,27.4521484
			c6.0986328,4.5126953,11.7988281,9.3486328,17.1079102,14.5214844c5.3027344,5.171875,11.2705078,9.6162109,17.9033203,13.328125
			c1.5913086,1.0625,3.7797852,2.5859375,6.5644531,4.5751953c2.7851562,1.9892578,5.7006836,3.9160156,8.7529297,5.7685547
			c3.0458984,1.8583984,6.0981445,3.2509766,9.1503906,4.1777344c3.0463867,0.9326172,5.6323242,0.7333984,7.7583008-0.5966797
			c5.5698242-2.9160156,10.8725586-6.4277344,15.9140625-10.5429688c5.0351562-4.109375,9.6108398-8.7529297,13.7260742-13.9257812
			c4.1088867-5.171875,7.4223633-10.6728516,9.9462891-16.5107422c2.5175781-5.8310547,3.9101562-11.9355469,4.1772461-18.3007812
			c0.5283203-5.5703125,0.597168-11.4013672,0.1992188-17.5058594c-0.3979492-6.0976562-1.9272461-11.6679688-4.5751953-16.7099609
			c-2.921875-5.0351562-7.0996094-8.6152344-12.5327148-10.7412109c-5.4394531-2.1201172-11.0776367-3.5810547-16.9086914-4.3769531
			c-12.2026367-1.8525391-24.4677734-1.5224609-36.8012695,0.9951172
			C928.0009766,1217.0644531,915.9970703,1220.7070312,904.3286133,1225.4814453z"/>
		<path class="st1" d="M1241.3105469,1218.7177734c0.2607422,22.8144531,1.8525391,45.6230469,4.7744141,68.4306641
			c2.9150391,22.8144531,6.7626953,45.3554688,11.5371094,67.6357422c1.0566406,5.0351562,0.1992188,9.2119141-2.5859375,12.5322266
			c-2.7851562,3.3134766-6.0361328,5.5009766-9.7470703,6.5644531c-3.7177734,1.0566406-7.4287109,0.7958984-11.1396484-0.7958984
			c-3.7177734-1.5917969-6.1044922-4.9111328-7.1621094-9.9462891c-3.1826172-15.1181641-5.9677734-29.9697266-8.3544922-44.5595703
			c-1.0634766,1.3300781-1.9892578,2.5859375-2.7851562,3.7792969c-0.7958984,1.1943359-1.7275391,2.4560547-2.7851562,3.7802734
			c-5.3085938,6.3652344-11.4072266,11.8730469-18.3007812,16.5107422
			c-6.9003906,4.6435547-14.2607422,8.2246094-22.0810547,10.7421875
			c-7.8261719,2.5234375-15.8515625,3.9160156-24.0703125,4.1767578
			c-8.2236328,0.2675781-16.3115234-0.6582031-24.2685547-2.7841797
			c-14.0615234-3.9785156-24.8037109-10.8730469-32.2265625-20.6884766
			c-7.4287109-9.8095703-12.7314453-21.0185547-15.9140625-33.6191406
			c-3.1826172-12.59375-5.0410156-25.7236328-5.5693359-39.3867188
			c-0.5351562-13.6582031-0.9326172-26.3212891-1.1943359-37.9951172c0-5.0351562,1.5917969-8.8154297,4.7744141-11.3388672
			c3.1826172-2.5175781,6.7636719-3.7802734,10.7421875-3.7802734s7.6210938,1.2626953,10.9414062,3.7802734
			c3.3134766,2.5234375,5.1035156,6.3037109,5.3710938,11.3388672c0.2607422,10.6113281,0.4599609,21.3535156,0.5966797,32.2255859
			c0.1298828,10.8789062,1.2558594,21.0869141,3.3818359,30.6347656c1.0566406,5.3085938,2.25,9.8847656,3.5800781,13.7255859
			c1.3242188,3.8486328,3.4443359,7.8955078,6.3662109,12.1347656c1.3232422,1.859375,2.0507812,2.921875,2.1875,3.1826172
			c0.1308594,0.2675781,0.4599609,0.5351562,0.9951172,0.7958984c3.9785156,3.1826172,6.6269531,5.1103516,7.9570312,5.7695312
			c1.3242188,0.6650391,2.9150391,1.2617188,4.7744141,1.7900391c11.1396484,3.1826172,22.4101562,2.8535156,33.8173828-0.9951172
			c11.4003906-3.8417969,20.5517578-10.8037109,27.4511719-20.8867188
			c3.9785156-6.3662109,6.9628906-12.9921875,8.9521484-19.8925781c1.9892578-6.8945312,3.3818359-13.8564453,4.1777344-20.8876953
			c0.7958984-7.0244141,1.3925781-14.1855469,1.7900391-21.484375c0.3974609-7.2910156,1.125-14.5214844,2.1884766-21.6826172
			c0-7.9570312,2.0507812-13.1914062,6.1660156-15.7148438c4.109375-2.5175781,8.4179688-3.3818359,12.9306641-2.5859375
			c2.6484375,0.7949219,4.7744141,1.7275391,6.3652344,2.7841797l3.1835938,2.7851562
			C1241.0429688,1209.5673828,1242.1064453,1214.2109375,1241.3105469,1218.7177734z"/>
	</g>
	<g class="st0">
		<path class="st1" d="M1330.4287109,1213.9433594c9.5488281-5.8300781,19.8242188-10.8720703,30.8339844-15.1181641
			c11.0029297-4.2392578,22.2109375-6.2285156,33.6181641-5.9677734c-1.0625-22.5410156-1.9267578-44.9570312-2.5859375-67.2373047
			c-0.6650391-22.2792969-1.1318359-44.6894531-1.3925781-67.2368164c0-5.0351562,1.5917969-8.8149414,4.7744141-11.3388672
			c3.1826172-2.5175781,6.7636719-3.7792969,10.7421875-3.7792969s7.6210938,1.2617188,10.9404297,3.7792969
			c3.3134766,2.5239258,4.9736328,6.3037109,4.9736328,11.3388672c0.2607422,26.2583008,0.9257812,52.5854492,1.9892578,78.9741211
			c1.0566406,26.3945312,2.1191406,52.7148438,3.1826172,78.9736328
			c1.0566406,26.2578125,1.8525391,52.5849609,2.3867188,78.9736328
			c0.5283203,26.3955078,0.3984375,52.7158203-0.3974609,78.9736328c-0.2675781,5.0351562-2.1259766,8.8837891-5.5703125,11.5380859
			c-3.4501953,2.6484375-7.1611328,3.9785156-11.1396484,3.9785156s-7.5595703-1.2617188-10.7421875-3.7792969
			c-3.1826172-2.5244141-4.6435547-6.4345703-4.3759766-11.7373047c0-1.8583984,0-3.7167969,0-5.5693359
			c0-1.859375,0.1308594-3.7177734,0.3974609-5.5703125c-2.6542969-0.2675781-5.2402344-0.4658203-7.7578125-0.5966797
			c-2.5244141-0.1367188-4.9736328-0.1992188-7.3603516-0.1992188c-3.1826172,0-6.3652344,0-9.5488281,0
			c-3.1826172,0-6.234375-0.1367188-9.1503906-0.3974609c-6.9003906-0.5351562-13.7939453-1.1933594-20.6884766-1.9892578
			c-6.9003906-0.7958984-13.6630859-2.3876953-20.2900391-4.7744141
			c-6.6328125-2.6484375-12.8681641-5.8994141-18.6992188-9.7470703
			c-5.8369141-3.8417969-10.6113281-8.9521484-14.3232422-15.3173828
			c-4.2451172-6.6269531-7.7578125-13.7880859-10.5429688-21.484375
			c-2.7841797-7.6894531-3.9160156-15.6464844-3.3818359-23.8710938c0.5292969-8.2177734,2.3876953-15.7773438,5.5703125-22.6777344
			c3.1826172-6.8935547,7.2236328-13.2597656,12.1347656-19.0966797
			c4.9042969-5.8310547,10.4746094-11.1396484,16.7099609-15.9140625
			C1316.9638672,1222.2988281,1323.5283203,1217.9228516,1330.4287109,1213.9433594z M1398.4619141,1331.7080078
			c0-35.5390625-0.7958984-71.2158203-2.3876953-107.0224609c-8.7529297-0.5283203-17.4433594,0.9951172-26.0595703,4.5751953
			c-8.6220703,3.5810547-16.5107422,7.6279297-23.671875,12.1347656c-3.9785156,2.3876953-8.2929688,5.1103516-12.9296875,8.15625
			c-4.6445312,3.0517578-8.8896484,6.5019531-12.7314453,10.34375c-3.8486328,3.8486328-6.9628906,8.0253906-9.3496094,12.5322266
			c-2.3876953,4.5136719-3.5810547,9.4179688-3.5810547,14.7207031c0.2607422,4.7744141,1.3242188,9.8847656,3.1826172,15.3173828
			c1.8525391,5.4394531,4.3769531,9.8847656,7.5595703,13.328125c3.1826172,3.4501953,6.7636719,6.0361328,10.7421875,7.7587891
			c3.9785156,1.7275391,8.2177734,3.1201172,12.7314453,4.1767578c5.3027344,1.0634766,10.40625,1.7285156,15.3173828,1.9892578
			c4.9042969,0.2675781,10.0078125,0.5351562,15.3173828,0.7958984c4.2392578,0,8.4853516,0.1992188,12.7304688,0.5966797
			C1389.5722656,1331.5097656,1393.9482422,1331.7080078,1398.4619141,1331.7080078z"/>
	</g>
	<g class="st0">
		<path class="st1" d="M1508.9667969,1213.9433594c9.5488281-5.8300781,19.8242188-10.8720703,30.8339844-15.1181641
			c11.0029297-4.2392578,22.2109375-6.2285156,33.6181641-5.9677734c-1.0625-22.5410156-1.9267578-44.9570312-2.5859375-67.2373047
			c-0.6650391-22.2792969-1.1318359-44.6894531-1.3925781-67.2368164c0-5.0351562,1.5917969-8.8149414,4.7744141-11.3388672
			c3.1826172-2.5175781,6.7636719-3.7792969,10.7421875-3.7792969s7.6210938,1.2617188,10.9404297,3.7792969
			c3.3134766,2.5239258,4.9736328,6.3037109,4.9736328,11.3388672c0.2607422,26.2583008,0.9257812,52.5854492,1.9892578,78.9741211
			c1.0566406,26.3945312,2.1191406,52.7148438,3.1826172,78.9736328
			c1.0566406,26.2578125,1.8525391,52.5849609,2.3867188,78.9736328
			c0.5283203,26.3955078,0.3984375,52.7158203-0.3974609,78.9736328c-0.2675781,5.0351562-2.1259766,8.8837891-5.5703125,11.5380859
			c-3.4501953,2.6484375-7.1611328,3.9785156-11.1396484,3.9785156s-7.5595703-1.2617188-10.7421875-3.7792969
			c-3.1826172-2.5244141-4.6435547-6.4345703-4.3759766-11.7373047c0-1.8583984,0-3.7167969,0-5.5693359
			c0-1.859375,0.1308594-3.7177734,0.3974609-5.5703125c-2.6542969-0.2675781-5.2402344-0.4658203-7.7578125-0.5966797
			c-2.5244141-0.1367188-4.9736328-0.1992188-7.3603516-0.1992188c-3.1826172,0-6.3652344,0-9.5488281,0
			c-3.1826172,0-6.234375-0.1367188-9.1503906-0.3974609c-6.9003906-0.5351562-13.7939453-1.1933594-20.6884766-1.9892578
			c-6.9003906-0.7958984-13.6630859-2.3876953-20.2900391-4.7744141
			c-6.6328125-2.6484375-12.8681641-5.8994141-18.6992188-9.7470703
			c-5.8369141-3.8417969-10.6113281-8.9521484-14.3232422-15.3173828
			c-4.2451172-6.6269531-7.7578125-13.7880859-10.5429688-21.484375
			c-2.7841797-7.6894531-3.9160156-15.6464844-3.3818359-23.8710938c0.5292969-8.2177734,2.3876953-15.7773438,5.5703125-22.6777344
			c3.1826172-6.8935547,7.2236328-13.2597656,12.1347656-19.0966797
			c4.9042969-5.8310547,10.4746094-11.1396484,16.7099609-15.9140625
			C1495.5019531,1222.2988281,1502.0664062,1217.9228516,1508.9667969,1213.9433594z M1577,1331.7080078
			c0-35.5390625-0.7958984-71.2158203-2.3876953-107.0224609c-8.7529297-0.5283203-17.4433594,0.9951172-26.0595703,4.5751953
			c-8.6220703,3.5810547-16.5107422,7.6279297-23.671875,12.1347656c-3.9785156,2.3876953-8.2929688,5.1103516-12.9296875,8.15625
			c-4.6445312,3.0517578-8.8896484,6.5019531-12.7314453,10.34375c-3.8486328,3.8486328-6.9628906,8.0253906-9.3496094,12.5322266
			c-2.3876953,4.5136719-3.5810547,9.4179688-3.5810547,14.7207031c0.2607422,4.7744141,1.3242188,9.8847656,3.1826172,15.3173828
			c1.8525391,5.4394531,4.3769531,9.8847656,7.5595703,13.328125c3.1826172,3.4501953,6.7636719,6.0361328,10.7421875,7.7587891
			c3.9785156,1.7275391,8.2177734,3.1201172,12.7314453,4.1767578c5.3027344,1.0634766,10.40625,1.7285156,15.3173828,1.9892578
			c4.9042969,0.2675781,10.0078125,0.5351562,15.3173828,0.7958984c4.2392578,0,8.4853516,0.1992188,12.7304688,0.5966797
			C1568.1103516,1331.5097656,1572.4863281,1331.7080078,1577,1331.7080078z"/>
		<path class="st1" d="M1649.8066406,1355.1816406c2.1201172-12.7314453,4.5751953-25.2636719,7.3603516-37.5966797
			c2.7851562-12.3339844,4.8359375-24.8662109,6.1669922-37.5976562
			c1.0566406-12.4638672,1.2548828-24.7285156,0.5966797-36.8017578c-0.6660156-12.0654297,0.0615234-24.3310547,2.1875-36.8007812
			c0.5283203-4.2402344,2.984375-7.4228516,7.3603516-9.5488281c4.3769531-2.1191406,8.4169922-2.6484375,12.1347656-1.5908203
			c4.5068359,1.3300781,7.6210938,3.8476562,9.3496094,7.5585938c1.7216797,3.7177734,2.3183594,7.6962891,1.7900391,11.9355469
			c-1.0625,6.1044922-1.5292969,12.3339844-1.3925781,18.6992188c0.1308594,6.3662109,0.3300781,12.7314453,0.5966797,19.0966797
			c0,12.203125-0.7949219,24.40625-2.3867188,36.6025391c-1.5917969,12.7314453-3.6494141,25.2021484-6.1669922,37.3984375
			c-2.5234375,12.203125-4.8427734,24.5361328-6.9619141,37c-0.7958984,4.2402344-3.3193359,7.4228516-7.5595703,9.5488281
			c-4.2460938,2.1201172-8.2246094,2.6484375-11.9355469,1.5917969c-4.5126953-1.3310547-7.6962891-3.8486328-9.5488281-7.5595703
			C1649.5390625,1363.3994141,1649.0107422,1359.4208984,1649.8066406,1355.1816406z M1668.9033203,1172.1689453
			c-1.8583984-0.5283203-3.7177734-1.3925781-5.5693359-2.5859375c-1.859375-1.1933594-3.1835938-2.7167969-3.9794922-4.5751953
			c-0.7949219-2.1201172-1.4599609-3.9785156-1.9892578-5.5693359c-0.5341797-1.5917969-0.7949219-3.4443359-0.7949219-5.5703125
			c0-2.3876953,0.3974609-4.7744141,1.1933594-7.1611328c1.0566406-4.7744141,3.1826172-8.21875,6.3652344-10.3447266
			c1.0566406-1.5908203,2.5175781-2.7851562,4.3769531-3.5800781c2.9150391-1.8525391,6.2285156-2.8476562,9.9462891-2.984375
			c3.7109375-0.1308594,7.0244141,0.8642578,9.9462891,2.984375c1.3242188,1.0625,2.6484375,2.1875,3.9785156,3.3818359
			c1.3242188,1.1933594,2.3867188,2.7226562,3.1826172,4.5751953c0.5283203,1.3300781,1.125,2.7841797,1.7900391,4.3759766
			c0.6591797,1.5917969,0.8583984,3.1826172,0.5966797,4.7744141c-0.2666016,1.8583984-0.5341797,3.5810547-0.7949219,5.171875
			c-0.2675781,1.5917969-0.9326172,3.0527344-1.9892578,4.3769531c-1.3310547,1.8583984-2.3876953,3.1826172-3.1835938,3.9785156
			c-0.7949219,0.7949219-2.1259766,1.8583984-3.9785156,3.1826172c-1.0625,1.0625-2.6542969,1.8583984-4.7734375,2.3867188
			C1677.65625,1172.1689453,1672.8818359,1173.2324219,1668.9033203,1172.1689453z"/>
		<path class="st1" d="M1752.453125,1204.7929688c5.0351562-6.8935547,11.0712891-12.9921875,18.1025391-18.3007812
			c7.0244141-5.3027344,14.5214844-9.4804688,22.4785156-12.5322266c7.9570312-3.0458984,16.1748047-4.6376953,24.6669922-4.7744141
			c8.4853516-0.1308594,16.9707031,1.5292969,25.4628906,4.9726562c8.2177734,3.1835938,15.6464844,7.4970703,22.2792969,12.9306641
			c6.6269531,5.4394531,11.7988281,12.4013672,15.5166016,20.8867188c2.9150391,6.3662109,4.6376953,13.2666016,5.171875,20.6884766
			c0.5283203,7.4287109-1.4609375,14.1923828-5.9677734,20.2910156c-3.9785156,5.5693359-8.8212891,9.8154297-14.5214844,12.7314453
			c-5.7070312,2.921875-11.8056641,5.0410156-18.3017578,6.3652344c-6.5019531,1.3300781-13.1289062,1.9892578-19.8925781,1.9892578
			s-13.1972656-0.1308594-19.2958984-0.3974609c-6.9003906-0.2617188-13.7255859-0.7958984-20.4892578-1.5917969
			s-13.5957031-1.5917969-20.4892578-2.3867188c2.1201172,11.9355469,6.3652344,22.546875,12.7314453,31.828125
			c6.3652344,9.2871094,14.9814453,16.3115234,25.8603516,21.0859375c2.9150391,1.0634766,5.171875,1.8583984,6.7636719,2.3867188
			c0.7958984,0.2675781,1.5224609,0.4667969,2.1875,0.5976562c0.6591797,0.1367188,1.3925781,0.1982422,2.1884766,0.1982422
			c2.1201172,0.2675781,3.9101562,0.4667969,5.3710938,0.5966797c1.4550781,0.1367188,2.8476562,0.0683594,4.1777344-0.1982422
			c1.8525391-0.2617188,3.1142578-0.4599609,3.7792969-0.5966797c0.6591797-0.1308594,1.3925781-0.3300781,2.1884766-0.5976562
			c2.9150391-0.7949219,5.5009766-1.7216797,7.7578125-2.7841797c2.25-1.0566406,4.9736328-2.7851562,8.15625-5.1728516
			c1.5908203-1.3232422,3.7109375-3.3125,6.3652344-5.9677734c2.6484375-2.6474609,4.9052734-5.0351562,6.7636719-7.1611328
			c2.6484375-3.7109375,5.8994141-6.2285156,9.7470703-7.5585938c3.8417969-1.3242188,7.7587891-0.7958984,11.7373047,1.5908203
			c3.4433594,2.1259766,5.8994141,5.3710938,7.3603516,9.7480469c1.4541016,4.3759766,0.8574219,8.4228516-1.7910156,12.1337891
			c-7.6953125,10.3447266-16.7783203,19.1660156-27.2529297,26.4570312
			c-10.4804688,7.2988281-22.4785156,11.2089844-36.0048828,11.7373047
			c-10.8789062,0.5341797-21.3535156-1.3925781-31.4306641-5.7695312
			c-10.0830078-4.3759766-18.9667969-10.2753906-26.65625-17.7041016
			c-9.5488281-9.28125-17.1074219-20.0234375-22.6777344-32.2255859
			c-5.5703125-12.1972656-8.6220703-24.6669922-9.1503906-37.3984375c-2.3876953-1.8525391-4.1777344-4.1777344-5.3710938-6.9628906
			c-1.1933594-2.7841797-1.5917969-5.6318359-1.1933594-8.5537109c0.3974609-2.9150391,1.3925781-5.6318359,2.9833984-8.15625
			c1.5917969-2.5175781,3.9785156-4.1767578,7.1611328-4.9726562
			C1741.8417969,1222.4355469,1746.3486328,1213.2851562,1752.453125,1204.7929688z M1847.9375,1214.3417969
			c-2.9208984-3.7109375-7.4287109-7.0244141-13.5263672-9.9462891c-5.0419922-2.1201172-10.9414062-3.1826172-17.7050781-3.1826172
			c-6.7626953,0-12.5322266,1.1933594-17.3066406,3.5800781c-6.1044922,2.921875-11.5371094,6.9628906-16.3115234,12.1347656
			s-8.6220703,10.9414062-11.5380859,17.3066406c6.3662109,0.7958984,12.7314453,1.5917969,19.0976562,2.3867188
			c6.3652344,0.7958984,12.7304688,1.3310547,19.0966797,1.5917969c3.4433594,0,6.8935547,0,10.34375,0
			c3.4443359,0,6.8945312-0.1308594,10.3447266-0.3974609c1.0566406,0,2.0507812-0.0625,2.9833984-0.1992188
			c0.9267578-0.1308594,1.9208984-0.1992188,2.984375-0.1992188c2.3867188-0.5283203,4.1777344-0.8574219,5.3710938-0.9941406
			c1.1933594-0.1308594,2.4492188-0.4599609,3.7792969-0.9951172c1.0566406-0.2607422,2.3867188-0.6591797,3.9785156-1.1933594
			c1.3242188-0.5283203,2.1201172-0.9267578,2.3867188-1.1933594c0.2617188-0.2617188,0.6591797-0.5283203,1.1943359-0.7958984
			l1.1933594-4.7744141c-0.5351562-1.0566406-0.8642578-2.0517578-0.9951172-2.9833984
			c-0.1367188-0.9267578-0.4658203-1.7910156-0.9941406-2.5859375c-0.2675781-0.7958984-0.8642578-1.9892578-1.7900391-3.5810547
			C1849.5917969,1216.7285156,1848.7333984,1215.4042969,1847.9375,1214.3417969z"/>
		<path class="st1" d="M1934.2714844,1270.8369141c-6.9003906-5.0351562-11.8046875-11.3388672-14.7207031-18.8984375
			c-2.9208984-7.5585938-3.0517578-15.578125-0.3974609-24.0693359c2.6484375-7.6904297,6.7636719-14.5839844,12.3339844-20.6884766
			c5.5693359-6.0986328,11.9355469-11.0039062,19.0966797-14.7207031
			c7.9570312-4.2402344,16.4423828-7.5595703,25.4619141-9.9462891c9.0146484-2.3876953,18.1650391-3.7109375,27.4521484-3.9785156
			c9.28125-0.2617188,18.5,0.5966797,27.6513672,2.5859375c9.1503906,1.9892578,17.8349609,5.109375,26.0585938,9.3496094
			c4.5068359,2.3867188,7.0253906,5.5693359,7.5595703,9.5478516c0.5283203,3.9785156-0.1992188,7.6962891-2.1884766,11.140625
			c-1.9892578,3.4501953-4.9726562,5.9677734-8.9511719,7.5585938c-3.9785156,1.5917969-8.2246094,1.1943359-12.7314453-1.1933594
			c-6.3662109-3.4433594-13.5273438-5.7001953-21.484375-6.7636719c-7.9570312-1.0566406-15.9824219-1.125-24.0703125-0.1982422
			c-8.09375,0.9316406-15.7148438,2.9833984-22.8759766,6.1660156c-7.1611328,3.1835938-13.1289062,7.2988281-17.9033203,12.3339844
			c-1.3300781,1.3300781-2.1884766,2.2558594-2.5859375,2.7851562c-0.3984375,0.5341797-0.9951172,1.7275391-1.7910156,3.5800781
			l-0.7949219,4.3769531c0.7949219,2.3867188,1.4541016,3.8476562,1.9892578,4.3759766
			c5.3017578,3.4501953,10.8037109,5.6386719,16.5107422,6.5644531c5.7001953,0.9326172,11.46875,1.5292969,17.3066406,1.7900391
			c8.2177734,0.5351562,16.6416016,0.9951172,25.2636719,1.3925781c8.6152344,0.3984375,16.9707031,1.5292969,25.0644531,3.3818359
			c8.0878906,1.859375,15.578125,4.9111328,22.4785156,9.1503906c6.8945312,4.2460938,12.7314453,10.4814453,17.5058594,18.6992188
			c5.3027344,9.2880859,7.7578125,18.8984375,7.3603516,28.8447266
			c-0.3984375,9.9462891-4.3144531,18.8984375-11.7373047,26.8554688
			c-7.4287109,7.9570312-16.0507812,13.4648438-25.8603516,16.5107422
			c-9.8154297,3.0458984-19.7617188,5.234375-29.8388672,6.5644531c-9.0195312,1.0566406-18.3691406,1.3242188-28.0488281,0.7958984
			c-9.6845703-0.5351562-18.9658203-2.0576172-27.8496094-4.5751953
			c-8.8896484-2.5185547-17.1757812-6.3662109-24.8652344-11.5380859
			c-7.6962891-5.171875-14.0615234-11.9980469-19.0976562-20.4892578
			c-2.3867188-4.2402344-2.7841797-8.2871094-1.1933594-12.1347656c1.5917969-3.8417969,4.0410156-6.7636719,7.3603516-8.7529297
			c3.3134766-1.9892578,7.0244141-2.7167969,11.1396484-2.1884766c4.109375,0.5351562,7.4912109,2.921875,10.1455078,7.1621094
			c3.7109375,6.1044922,8.8837891,10.7412109,15.5166016,13.9248047c6.6269531,3.1826172,13.8564453,5.3710938,21.6826172,6.5644531
			c7.8203125,1.1933594,15.7158203,1.4609375,23.6728516,0.7958984c7.9570312-0.6591797,15.1181641-1.6542969,21.4833984-2.984375
			c3.4443359-0.7958984,6.9628906-1.9208984,10.5429688-3.3818359c3.5810547-1.4541016,6.6269531-3.2451172,9.1513672-5.3710938
			c2.5175781-2.1191406,4.3076172-4.5751953,5.3710938-7.3603516c1.0566406-2.7841797,0.9257812-5.8994141-0.3984375-9.3496094
			c-2.6542969-6.6259766-7.0986328-11.4003906-13.328125-14.3222656c-6.2353516-2.9160156-12.7998047-4.6376953-19.6933594-5.171875
			c-6.9003906-0.5283203-13.9248047-0.7958984-21.0859375-0.7958984c-7.1621094,0-14.3232422-0.3291016-21.484375-0.9951172
			c-7.1611328-0.6582031-14.1923828-1.9208984-21.0859375-3.7792969
			C1946.46875,1278.1347656,1940.1025391,1275.0830078,1934.2714844,1270.8369141z"/>
	</g>
</g>
<g id="branding_logo" transform="translate(0 20.237)">
	<path id="Path_6" class="st1" d="M418.8974304,1022.3347778c11.4465637,0.0148926,20.7215271,9.2907104,20.7364502,20.7363892
		v145.0894775c-0.0149231,11.4458008-9.2898865,20.7215576-20.7364502,20.7364502h-82.934082
		c-11.4465637-0.0148926-20.7214966-9.2906494-20.7364197-20.7364502V1043.071167
		c0.0149231-11.4456787,9.289856-20.7214966,20.7364197-20.7363892H418.8974304 M418.8974304,991.2367554h-82.934082
		c-28.6271667,0-51.8352661,23.2072754-51.8352661,51.8344116c0,0.0008545,0,0.0008545,0,0.0008545v145.088623
		c0,28.6280518,23.2064514,51.8353271,51.8352661,51.8353271l0,0h82.934082
		c28.6271973,0,51.8352661-23.2072754,51.8352661-51.8344727c0-0.0008545,0-0.0008545,0-0.0008545V1043.071167
		C470.7244263,1014.4489746,447.5196533,991.25,418.8974304,991.25V991.2367554z"/>
	<path id="Path_7" class="st1" d="M418.8974304,897.9278564c11.4465637,0.0148926,20.7215271,9.2906494,20.7364502,20.7363892
		v145.0895386c-0.0149231,11.4456787-9.2898865,20.7214355-20.7364502,20.7363281h-82.934082
		c-11.4465637-0.0148926-20.7214966-9.2906494-20.7364197-20.7363281V918.6642456
		c0.0149231-11.4457397,9.289856-20.7214966,20.7364197-20.7363892H418.8974304 M418.8974304,866.829834h-82.934082
		c-28.6271667,0-51.8352661,23.2072754-51.8352661,51.8344116c0,0.0008545,0,0.0008545,0,0.0008545v145.0886841
		c0,28.6279297,23.2064514,51.8352051,51.8352661,51.8352051l0,0h82.934082
		c28.6271973,0,51.8352661-23.2072754,51.8352661-51.8344727c0-0.0007324,0-0.0007324,0-0.0007324V918.6642456
		c-0.0082703-28.6221924-23.2130432-51.821167-51.8352661-51.821167V866.829834z"/>
	<path id="Path_8" class="st1" d="M263.3924866,1022.3347778c11.4457397,0.0148926,20.7215271,9.2907104,20.7364502,20.7363892
		v145.0894775c-0.0149231,11.4458008-9.2907104,20.7215576-20.7364502,20.7364502h-82.9332428
		c-11.4457397-0.0148926-20.7215118-9.2906494-20.7364349-20.7364502V1043.071167
		c0.0149231-11.4456787,9.2906952-20.7214966,20.7364349-20.7363892H263.3924866 M263.3924866,991.2367554h-82.9332428
		c-28.628006,0-51.8352661,23.2072754-51.8352661,51.8344116c0,0.0008545,0,0.0008545,0,0.0008545v145.088623
		c0,28.6280518,23.2072601,51.8353271,51.8344269,51.8353271c0.0008392,0,0.0008392,0,0.0008392,0h82.9332428
		c28.6280212,0,51.8352661-23.2072754,51.8352661-51.8344727c0-0.0008545,0-0.0008545,0-0.0008545V1043.071167
		C315.2203064,1014.4489746,292.0147095,991.25,263.3924866,991.25V991.2367554z"/>
	<path id="Path_9" class="st1" d="M201.1815796,1084.5316162c11.4457245,0.0148926,20.7214966,9.2906494,20.7364197,20.7364502
		v82.9332275c-0.0074615,11.4498291-9.287384,20.7281494-20.7364197,20.7364502H56.0523033
		c-11.4490471-0.0083008-20.7289658-9.2866211-20.7364235-20.7364502v-82.9332275
		c0.0149193-11.4458008,9.2906914-20.7215576,20.7364235-20.7364502h145.1433563 M201.1956635,1053.4335938H56.0523033
		c-28.6280022,0-51.8352585,23.2072754-51.8352585,51.8344727c0,0.0007324,0,0.0007324,0,0.0007324v82.9342041
		c0,28.6270752,23.2072563,51.8352051,51.8344269,51.8352051c0.0008316,0,0.0008316,0,0.0008316,0h145.1433563
		c28.628006,0,51.8352509-23.2064209,51.8352509-51.8352051l0,0v-82.9333496
		c0.0008392-28.6279297-23.2064209-51.8352051-51.8335876-51.8360596c-0.0058136,0-0.010788,0-0.0157471,0H201.1956635z"/>
</g>
</svg>
