<?xml version="1.0" encoding="utf-8"?>
<!-- Generator: Adobe Illustrator 25.2.0, SVG Export Plug-In . SVG Version: 6.00 Build 0)  -->
<svg version="1.1" id="Layer_1" xmlns="http://www.w3.org/2000/svg" xmlns:xlink="http://www.w3.org/1999/xlink" x="0px" y="0px"
	 viewBox="0 0 2160 2160" enable-background="new 0 0 2160 2160" xml:space="preserve">
<g transform="matrix(1, 0, 0, 1, 0, 0)">
	<g id="Rectangle_2-2" transform="translate(214.58 180.82) rotate(31)">
		
			<radialGradient id="SVGID_1_" cx="834.3690796" cy="1806.0341797" r="1.5504757" gradientTransform="matrix(157.7187653 -139.5753479 -94.7670441 -232.2923126 40310.2070312 536791.25)" gradientUnits="userSpaceOnUse">
			<stop  offset="0" style="stop-color:#F1F5F9"/>
			<stop  offset="1" style="stop-color:#E2E8F0"/>
		</radialGradient>
		<path fill="url(#SVGID_1_)" d="M511.4707031,385.8357849l483.7485962-0.000061
			c23.9765015,0,43.413269,19.4368286,43.413269,43.4133301l0.0001221,753.5314941
			c0,23.9765625-19.4367676,43.4133301-43.4133301,43.4133301H511.4707642
			c-23.976532,0-43.4133301-19.4367676-43.4133301-43.4133301l-0.000061-753.5313721
			C468.057373,405.272583,487.4941711,385.8357849,511.4707031,385.8357849z"/>
		<path fill="none" stroke="#FFFFFF" d="M511.4707031,387.386261l483.7485962-0.000061
			c23.1201782,0,41.862854,18.7426453,41.862854,41.862854v753.5314941c0,23.1202393-18.7426147,41.862793-41.862793,41.862793
			l-483.7485962,0.0001221c-23.1202087,0-41.862854-18.7426758-41.862854-41.862915l-0.000061-753.5313721
			C469.6078491,406.1289062,488.3504639,387.386261,511.4707031,387.386261z"/>
	</g>
</g>
<g transform="matrix(1, 0, 0, 1, 0, 0)">
	<g id="Rectangle_3-2" transform="translate(288.22 157) rotate(-30)">
		
			<radialGradient id="SVGID_2_" cx="-1250.6483154" cy="1591.5864258" r="1.5504757" gradientTransform="matrix(159.3486328 135.5000763 92.0000763 -234.6928406 53196.7773438 544047.5)" gradientUnits="userSpaceOnUse">
			<stop  offset="0" style="stop-color:#F1F5F9"/>
			<stop  offset="1" style="stop-color:#E2E8F0"/>
		</radialGradient>
		<path fill="url(#SVGID_2_)" d="M91.8809891,630.446228l483.7485962,0.000061
			c23.9765625,0,43.4133301,19.4368286,43.4133301,43.4133301l-0.0001221,753.5314941
			c0,23.9765625-19.4368286,43.4133301-43.4133911,43.4133301l-483.7485657-0.0001221
			c-23.9765244,0-43.4133339-19.4367676-43.4133301-43.4133301l0.000145-753.5314331
			C48.4676514,649.8829956,67.9044647,630.446228,91.8809891,630.446228z"/>
		<path fill="none" stroke="#FFFFFF" d="M91.8809891,631.9967041l483.7485962,0.000061
			c23.1202393,0,41.862854,18.7426758,41.862854,41.862854l-0.0001221,753.5314941
			c0,23.1202393-18.7426758,41.862915-41.862915,41.862793H91.8808289c-23.120224,0-41.8628578-18.7426758-41.862854-41.862915
			l0.000145-753.5314331C50.0181274,650.7393188,68.7607727,631.9967041,91.8809891,631.9967041z"/>
	</g>
</g>
<g transform="matrix(1, 0, 0, 1, 0, 0)">
	<g id="Rectangle_4-2" transform="matrix(0.89, 0.45, -0.45, 0.89, 617.68, 102.85)">
		
			<radialGradient id="SVGID_3_" cx="381.2373352" cy="2119.4597168" r="1.5504757" gradientTransform="matrix(163.7599945 -121.9499969 -82.8000031 -241.1900024 114468.734375 557994.875)" gradientUnits="userSpaceOnUse">
			<stop  offset="0" style="stop-color:#F1F5F9"/>
			<stop  offset="1" style="stop-color:#E2E8F0"/>
		</radialGradient>
		<path fill="url(#SVGID_3_)" d="M1167.0179443-109.7081528h483.7484131c23.9765625,0,43.4133301,19.4368057,43.4133301,43.4133224
			v753.53125c0,23.9765015-19.4367676,43.4133301-43.4133301,43.4133301h-483.7484131
			c-23.9765625,0-43.4133301-19.4368286-43.4133301-43.4133301v-753.53125
			C1123.6046143-90.271347,1143.0413818-109.7081528,1167.0179443-109.7081528z"/>
		<path fill="none" stroke="#FFFFFF" stroke-width="0.9972963" stroke-miterlimit="3.9891853" d="M1167.0179443-108.1576767
			h483.7484131c23.1202393,0,41.862793,18.74263,41.862793,41.8628464v753.53125
			c0,23.1201782-18.7425537,41.862854-41.862793,41.862854h-483.7484131c-23.1202393,0-41.862915-18.7426758-41.862915-41.862854
			v-753.53125C1125.1550293-89.4150391,1143.8977051-108.1576767,1167.0179443-108.1576767z"/>
	</g>
</g>
</svg>
