<?xml version="1.0" encoding="utf-8"?>
<!-- Generator: Adobe Illustrator 25.2.0, SVG Export Plug-In . SVG Version: 6.00 Build 0)  -->
<svg version="1.1" id="Layer_1" xmlns="http://www.w3.org/2000/svg" xmlns:xlink="http://www.w3.org/1999/xlink" x="0px" y="0px"
	 viewBox="0 0 2160 2160" enable-background="new 0 0 2160 2160" xml:space="preserve">
<g transform="matrix(1, 0, 0, 1, 0, 0)">
	<g id="Rectangle_2-2" transform="translate(75 65)">
		
			<radialGradient id="SVGID_1_" cx="-76.1458664" cy="2096.1508789" r="2.5245202" gradientTransform="matrix(184 0 0 -271 14399.3623047 568676.0625)" gradientUnits="userSpaceOnUse">
			<stop  offset="0" style="stop-color:#F1F5F9"/>
			<stop  offset="1" style="stop-color:#E2E8F0"/>
		</radialGradient>
		<path fill="url(#SVGID_1_)" d="M-5.3026013-65h787.6502686c39.0391235,0,70.6865845,31.6474495,70.6865845,70.6865616v1226.916748
			c0,39.0391846-31.6474609,70.6866455-70.6865845,70.6866455H-5.3026013
			c-39.0391121,0-70.6865616-31.6474609-70.6865616-70.6866455V5.6865616C-75.9891663-33.3525505-44.341713-65-5.3026013-65z"/>
		<path fill="none" stroke="#FFFFFF" d="M-5.3026013-62.4754791h787.6502686
			c37.6448364,0,68.1620483,30.5171833,68.1620483,68.1620407v1226.916748
			c0,37.6448975-30.5172119,68.1621094-68.1620483,68.1621094H-5.3026013
			c-37.6448593,0-68.1620407-30.5172119-68.1620407-68.1621094V5.6865616
			C-73.4646454-31.9582958-42.9474602-62.4754791-5.3026013-62.4754791z"/>
	</g>
</g>
<g transform="matrix(1, 0, 0, 1, 0, 0)">
	<g id="Rectangle_3-2" transform="translate(197 120)">
		
			<radialGradient id="SVGID_2_" cx="-195.4611816" cy="2040.3292236" r="2.5245202" gradientTransform="matrix(184 0 0 -271 36847.3632812 553771.0625)" gradientUnits="userSpaceOnUse">
			<stop  offset="0" style="stop-color:#F1F5F9"/>
			<stop  offset="1" style="stop-color:#E2E8F0"/>
		</radialGradient>
		<path fill="url(#SVGID_2_)" d="M488.6802979,157.6972046h787.6502686c39.0391846,0,70.6865234,31.6474457,70.6865234,70.6865692
			v1226.916748c0,39.0391846-31.6473389,70.6865234-70.6865234,70.6865234H488.6802979
			c-39.0391235,0-70.686554-31.6473389-70.686554-70.6865234V228.3837738
			C417.9937439,189.3446503,449.6411743,157.6972046,488.6802979,157.6972046z"/>
		<path fill="none" stroke="#FFFFFF" d="M488.6802979,160.2217255h787.6502686
			c37.6447754,0,68.1619873,30.5171814,68.1619873,68.1620483v1226.916748
			c0,37.6447754-30.5172119,68.1619873-68.1619873,68.1619873H488.6802979
			c-37.6448669,0-68.1620483-30.5172119-68.1620483-68.1619873V228.3837738
			C420.5182495,190.7389069,451.0354309,160.2217255,488.6802979,160.2217255z"/>
	</g>
</g>
<g transform="matrix(1, 0, 0, 1, 0, 0)">
	<g id="Rectangle_4-2" transform="translate(319 65)">
		
			<radialGradient id="SVGID_3_" cx="-314.7764893" cy="2096.1508789" r="2.5245202" gradientTransform="matrix(184 0 0 -271 59295.3632812 568676.0625)" gradientUnits="userSpaceOnUse">
			<stop  offset="0" style="stop-color:#F1F5F9"/>
			<stop  offset="1" style="stop-color:#E2E8F0"/>
		</radialGradient>
		<path fill="url(#SVGID_3_)" d="M982.663208-65h787.6502686C1809.3525391-65,1841-33.3525505,1841,5.6865616v1226.916748
			c0,39.0391846-31.6474609,70.6866455-70.6865234,70.6866455H982.663208
			c-39.0391235,0-70.6865845-31.6474609-70.6865845-70.6866455V5.6865616C911.9766235-33.3525505,943.6240845-65,982.663208-65z"/>
		<path fill="none" stroke="#FFFFFF" d="M982.663208-62.4754791h787.6502686
			c37.6447754,0,68.1619873,30.5171833,68.1619873,68.1620407v1226.916748
			c0,37.6448975-30.5172119,68.1621094-68.1619873,68.1621094H982.663208
			c-37.6448975,0-68.1620483-30.5172119-68.1620483-68.1621094V5.6865616
			C914.5011597-31.9582958,945.0183105-62.4754791,982.663208-62.4754791z"/>
	</g>
</g>
</svg>
